<svg xmlns="http://www.w3.org/2000/svg" viewBox="0 0 1920 1080" width="100%" height="100%">
  <!-- Definitions for Gradients, Shadows, and Filters -->
  <defs>
    <linearGradient id="bg-grad" x1="0%" y1="0%" x2="100%" y2="100%">
      <stop offset="0%" stop-color="#020b18" />
      <stop offset="50%" stop-color="#041f2e" />
      <stop offset="100%" stop-color="#010e1a" />
    </linearGradient>
    <linearGradient id="card-grad" x1="0%" y1="0%" x2="0%" y2="100%">
      <stop offset="0%" stop-color="#082a3d" />
      <stop offset="100%" stop-color="#031622" />
    </linearGradient>
    <linearGradient id="trello-card" x1="0%" y1="0%" x2="100%" y2="100%">
      <stop offset="0%" stop-color="#1e3a8a" />
      <stop offset="100%" stop-color="#0f172a" />
    </linearGradient>
    <linearGradient id="accent-teal" x1="0%" y1="0%" x2="100%" y2="0%">
      <stop offset="0%" stop-color="#2dd4bf" />
      <stop offset="100%" stop-color="#0d9488" />
    </linearGradient>
    <linearGradient id="glow-grad" x1="0%" y1="0%" x2="100%" y2="100%">
      <stop offset="0%" stop-color="#14b8a6" stop-opacity="0.3" />
      <stop offset="100%" stop-color="#06b6d4" stop-opacity="0" />
    </linearGradient>
    <filter id="shadow" x="-5%" y="-5%" width="110%" height="110%">
      <feDropShadow dx="0" dy="8" stdDeviation="6" flood-color="#000000" flood-opacity="0.5"/>
    </filter>
    <filter id="glow-teal" x="-20%" y="-20%" width="140%" height="140%">
      <feGaussianBlur stdDeviation="6" result="blur" />
      <feComposite in="SourceGraphic" in2="blur" operator="over" />
    </filter>
    <filter id="glow-emerald" x="-20%" y="-20%" width="140%" height="140%">
      <feGaussianBlur stdDeviation="5" result="blur" />
      <feComposite in="SourceGraphic" in2="blur" operator="over" />
    </filter>
  </defs>

  <!-- Background -->
  <rect width="1920" height="1080" fill="url(#bg-grad)" />
  
  <!-- Subtle Grid Pattern for Hi-Tech Style -->
  <g opacity="0.02" stroke="#2dd4bf" stroke-width="1">
    <path d="M 0,50 L 1920,50 M 0,100 L 1920,100 M 0,150 L 1920,150 M 0,200 L 1920,200 M 0,250 L 1920,250 M 0,300 L 1920,300 M 0,350 L 1920,350 M 0,400 L 1920,400 M 0,450 L 1920,450 M 0,500 L 1920,500 M 0,550 L 1920,550 M 0,600 L 1920,600 M 0,650 L 1920,650 M 0,700 L 1920,700 M 0,750 L 1920,750 M 0,800 L 1920,800 M 0,850 L 1920,850 M 0,900 L 1920,900 M 0,950 L 1920,950 M 0,1000 L 1920,1000 M 0,1050 L 1920,1050" />
    <path d="M 50,0 L 50,1080 M 100,0 L 100,1080 M 150,0 L 150,1080 M 200,0 L 200,1080 M 250,0 L 250,1080 M 300,0 L 300,1080 M 350,0 L 350,1080 M 400,0 L 400,1080 M 450,0 L 450,1080 M 500,0 L 500,1080 M 550,0 L 550,1080 M 600,0 L 600,1080 M 650,0 L 650,1080 M 700,0 L 700,1080 M 750,0 L 750,1080 M 800,0 L 800,1080 M 850,0 L 850,1080 M 900,0 L 900,1080 M 950,0 L 950,1080 M 1000,0 L 1000,1080 M 1050,0 L 1050,1080 M 1100,0 L 1100,1080 M 1150,0 L 1150,1080 M 1200,0 L 1200,1080 M 1250,0 L 1250,1080 M 1300,0 L 1300,1080 M 1350,0 L 1350,1080 M 1400,0 L 1400,1080 M 1450,0 L 1450,1080 M 1500,0 L 1500,1080 M 1550,0 L 1550,1080 M 1600,0 L 1600,1080 M 1650,0 L 1650,1080 M 1700,0 L 1700,1080 M 1750,0 L 1750,1080 M 1800,0 L 1800,1080 M 1850,0 L 1850,1080 M 1900,0 L 1900,1080" />
  </g>

  <!-- Glowing background blobs -->
  <circle cx="200" cy="200" r="150" fill="url(#glow-grad)" opacity="0.3" filter="url(#glow-teal)" />
  <circle cx="1700" cy="800" r="200" fill="url(#glow-grad)" opacity="0.2" filter="url(#glow-teal)" />

  <!-- MAIN TITLE HEADER -->
  <g filter="url(#shadow)" transform="translate(0, 0)">
    <rect x="0" y="0" width="1920" height="95" fill="rgba(2, 11, 24, 0.8)" />
    <line x1="0" y1="95" x2="1920" y2="95" stroke="#14b8a6" stroke-width="1.5" opacity="0.6" filter="url(#glow-teal)" />
    
    <text x="960" y="60" text-anchor="middle" fill="#ffffff" font-family="'Inter', system-ui, sans-serif" font-weight="900" font-size="36" letter-spacing="1">SỬ DỤNG CÔNG CỤ HỢP TÁC TRỰC TUYẾN CHO DỰ ÁN NHÓM</text>
    <text x="960" y="60" text-anchor="middle" fill="none" stroke="#2dd4bf" stroke-width="1" font-family="'Inter', system-ui, sans-serif" font-weight="900" font-size="36" letter-spacing="1" filter="url(#glow-teal)" opacity="0.5">SỬ DỤNG CÔNG CỤ HỢP TÁC TRỰC TUYẾN CHO DỰ ÁN NHÓM</text>
  </g>

  <!-- COLUMN I - 1. HỆ THỐNG CÔNG CỤ & CÁCH THIẾT LẬP -->
  <g transform="translate(35, 120)" filter="url(#shadow)">
    <!-- Main Outer Box -->
    <rect width="910" height="890" rx="20" fill="url(#card-grad)" stroke="#14b8a6" stroke-width="1.5" />
    <rect width="910" height="890" rx="20" fill="none" stroke="#14b8a6" stroke-width="2.5" opacity="0.25" filter="url(#glow-teal)" />
    
    <!-- Title Section Header -->
    <text x="40" y="45" fill="#2dd4bf" font-family="'Inter', system-ui, sans-serif" font-weight="900" font-size="24" letter-spacing="1">1. HỆ THỐNG CÔNG CỤ &amp; CÁCH THIẾT LẬP</text>
    <line x1="40" y1="58" x2="450" y2="58" stroke="#2dd4bf" stroke-width="2" opacity="0.5" />

    <!-- 1.1 TRELLO (Top Left) -->
    <g transform="translate(30, 85)">
      <rect width="410" height="360" rx="16" fill="#041522" stroke="#3b82f6" stroke-width="1.5" />
      <rect width="410" height="42" rx="16" fill="#1e3a8a" stroke="#3b82f6" stroke-width="1.5" opacity="0.4" />
      <text x="20" y="28" fill="#93c5fd" font-family="'Inter', system-ui, sans-serif" font-weight="900" font-size="18">TRELLO <tspan font-weight="500" fill="#cbd5e1" font-size="15">(Quản lý nhiệm vụ)</tspan></text>
      
      <!-- Inside Kanban Simulation -->
      <g transform="translate(15, 60)">
        <!-- 4 Columns -->
        <!-- To Do -->
        <rect x="0" y="0" width="85" height="230" rx="6" fill="#0b1e2d" stroke="#334155" stroke-width="1" />
        <text x="42" y="18" text-anchor="middle" fill="#94a3b8" font-family="'Inter', system-ui, sans-serif" font-weight="bold" font-size="11">Cần làm</text>
        <rect x="6" y="28" width="73" height="40" rx="4" fill="#0f172a" />
        <rect x="12" y="34" width="20" height="4" rx="1" fill="#ef4444" />
        <rect x="12" y="42" width="50" height="2" fill="#475569" />
        <rect x="12" y="48" width="35" height="2" fill="#475569" />
        
        <!-- Doing -->
        <rect x="95" y="0" width="85" height="230" rx="6" fill="#0b1e2d" stroke="#f59e0b" stroke-width="1" />
        <text x="137" y="18" text-anchor="middle" fill="#f59e0b" font-family="'Inter', system-ui, sans-serif" font-weight="bold" font-size="11">Đang làm</text>
        <rect x="101" y="28" width="73" height="40" rx="4" fill="#0f172a" stroke="#f59e0b" stroke-width="0.5" />
        <rect x="107" y="34" width="20" height="4" rx="1" fill="#3b82f6" />
        <rect x="107" y="42" width="55" height="2" fill="#475569" />
        <circle cx="160" cy="56" r="4" fill="#f59e0b" />
        
        <!-- Review -->
        <rect x="190" y="0" width="85" height="230" rx="6" fill="#0b1e2d" stroke="#a855f7" stroke-width="1" />
        <text x="232" y="18" text-anchor="middle" fill="#a855f7" font-family="'Inter', system-ui, sans-serif" font-weight="bold" font-size="11">Xem xét</text>
        <rect x="196" y="28" width="73" height="40" rx="4" fill="#0f172a" />
        <rect x="202" y="34" width="20" height="4" rx="1" fill="#a855f7" />
        <rect x="202" y="42" width="55" height="2" fill="#475569" />

        <!-- Done -->
        <rect x="285" y="0" width="85" height="230" rx="6" fill="#0b1e2d" stroke="#10b981" stroke-width="1" />
        <text x="327" y="18" text-anchor="middle" fill="#10b981" font-family="'Inter', system-ui, sans-serif" font-weight="bold" font-size="11">Hoàn thành</text>
        <rect x="291" y="28" width="73" height="40" rx="4" fill="#0f172a" />
        <rect x="297" y="34" width="20" height="4" rx="1" fill="#10b981" />
        <rect x="297" y="42" width="55" height="2" fill="#475569" stroke="#10b981" stroke-width="0.5" />
        <path d="M346,52 L350,56 L356,50" fill="none" stroke="#10b981" stroke-width="1.5" />

        <!-- Priority indicator graphic bottom left of Trello block -->
        <g transform="translate(10, 180)">
          <!-- priority label tag -->
          <rect x="0" y="12" width="80" height="24" rx="4" fill="#ef4444" opacity="0.8" />
          <text x="40" y="28" text-anchor="middle" fill="#ffffff" font-family="'Inter', system-ui, sans-serif" font-weight="bold" font-size="11">Độ ưu tiên</text>
          <path d="M-8,24 L0,16 L0,32 Z" fill="#ef4444" opacity="0.8" />
          <circle cx="-12" cy="24" r="2" fill="#ef4444" />
        </g>

        <!-- Deadline indicator graphic bottom right of Trello block -->
        <g transform="translate(280, 180)">
          <rect x="0" y="12" width="80" height="24" rx="12" fill="#1e293b" stroke="#f59e0b" stroke-width="1.5" />
          <text x="40" y="28" text-anchor="middle" fill="#f59e0b" font-family="'Inter', system-ui, sans-serif" font-weight="black" font-size="10">Hạn chót</text>
          <!-- small clock icon -->
          <circle cx="-10" cy="24" r="8" stroke="#f59e0b" stroke-width="1.5" fill="none" />
          <polyline points="-10,24 -10,20 -7,24" fill="none" stroke="#f59e0b" stroke-width="1.5" />
        </g>
      </g>
      
      <!-- Bottom description -->
      <line x1="15" y1="315" x2="395" y2="315" stroke="#334155" stroke-width="1" />
      <text x="20" y="340" fill="#94a3b8" font-family="'Inter', system-ui, sans-serif" font-size="13">Bảng phân công, phân cấp độ ưu tiên &amp; thời gian hoàn thành</text>
    </g>

    <!-- 1.2 GOOGLE DRIVE (Top Right) -->
    <g transform="translate(470, 85)">
      <rect width="410" height="360" rx="16" fill="#041522" stroke="#eab308" stroke-width="1.5" />
      <rect width="410" height="42" rx="16" fill="#713f12" stroke="#eab308" stroke-width="1.5" opacity="0.4" />
      <text x="20" y="28" fill="#fef08a" font-family="'Inter', system-ui, sans-serif" font-weight="900" font-size="18">GOOGLE DRIVE <tspan font-weight="500" fill="#cbd5e1" font-size="15">(Lưu trữ)</tspan></text>
      
      <!-- Big Cloud Outline with folders inside -->
      <g transform="translate(45, 60)">
        <path d="M50,150 A40,40 0 0,1 80,80 A55,55 0 0,1 180,60 A45,45 0 0,1 230,100 A40,40 0 0,1 260,150 Z" fill="#0f2b3e" stroke="#0ea5e9" stroke-width="2.5" opacity="0.6" filter="url(#glow-teal)" />
        <path d="M50,150 L260,150" stroke="#0ea5e9" stroke-width="2.5" opacity="0.6" />
        
        <!-- Folder 1: Tài liệu tham khảo -->
        <g transform="translate(85, 95)">
          <rect x="-30" y="-18" width="60" height="36" rx="4" fill="#eab308" opacity="0.9" />
          <polygon points="-30,-18 -15,-25 5,-25 10,-18" fill="#ca8a04" />
          <text x="0" y="32" text-anchor="middle" fill="#e2e8f0" font-family="'Inter', system-ui, sans-serif" font-weight="bold" font-size="10">Tài liệu tham khảo</text>
        </g>
        
        <!-- Folder 2: Tài liệu hình ảnh -->
        <g transform="translate(215, 95)">
          <rect x="-30" y="-18" width="60" height="36" rx="4" fill="#eab308" opacity="0.9" />
          <polygon points="-30,-18 -15,-25 5,-25 10,-18" fill="#ca8a04" />
          <text x="0" y="32" text-anchor="middle" fill="#e2e8f0" font-family="'Inter', system-ui, sans-serif" font-weight="bold" font-size="10">Tài liệu hình ảnh</text>
        </g>

        <!-- Folder 3: Bản thảo nhóm -->
        <g transform="translate(100, 185)">
          <rect x="-30" y="-18" width="60" height="36" rx="4" fill="#10b981" opacity="0.8" />
          <polygon points="-30,-18 -15,-25 5,-25 10,-18" fill="#059669" />
          <text x="0" y="32" text-anchor="middle" fill="#e2e8f0" font-family="'Inter', system-ui, sans-serif" font-weight="bold" font-size="10">Bản thảo nhóm</text>
        </g>
        
        <!-- Folder 4: Bản hoàn thiện -->
        <g transform="translate(230, 185)">
          <rect x="-30" y="-18" width="60" height="36" rx="4" fill="#ef4444" opacity="0.8" />
          <polygon points="-30,-18 -15,-25 5,-25 10,-18" fill="#dc2626" />
          <text x="0" y="32" text-anchor="middle" fill="#e2e8f0" font-family="'Inter', system-ui, sans-serif" font-weight="bold" font-size="10">Bản hoàn thiện</text>
        </g>

        <!-- Permissions key/lock -->
        <g transform="translate(160, 240)">
          <rect x="-70" y="-15" width="140" height="30" rx="15" fill="#020b18" stroke="#10b981" stroke-width="1.5" />
          <circle cx="-45" cy="0" r="8" fill="#10b981" />
          <path d="-45,-4 L-45,-1 A3,3 0 0,1 -42,2 L-42,2" fill="none" stroke="#020b18" stroke-width="1.5" />
          <text x="12" y="5" text-anchor="middle" fill="#10b981" font-family="'Inter', system-ui, sans-serif" font-weight="bold" font-size="11">Phân quyền truy cập</text>
        </g>
      </g>

      <!-- Bottom description -->
      <line x1="15" y1="315" x2="395" y2="315" stroke="#334155" stroke-width="1" />
      <text x="20" y="340" fill="#94a3b8" font-family="'Inter', system-ui, sans-serif" font-size="13">Hệ thống hóa dữ liệu, lưu trữ tập trung &amp; phân chia vai trò rõ ràng</text>
    </g>

    <!-- 1.3 GOOGLE DOCS (Bottom Left) -->
    <g transform="translate(30, 475)">
      <rect width="410" height="380" rx="16" fill="#041522" stroke="#0ea5e9" stroke-width="1.5" />
      <rect width="410" height="42" rx="16" fill="#0369a1" stroke="#0ea5e9" stroke-width="1.5" opacity="0.4" />
      <text x="20" y="28" fill="#7dd3fc" font-family="'Inter', system-ui, sans-serif" font-weight="900" font-size="18">GOOGLE DOCS <tspan font-weight="500" fill="#cbd5e1" font-size="15">(Soạn thảo)</tspan></text>
      
      <!-- Docs Document Illustration -->
      <g transform="translate(60, 65)">
        <!-- Document page background sheet -->
        <rect x="0" y="10" width="160" height="210" rx="8" fill="#ffffff" stroke="#e2e8f0" stroke-width="2" />
        
        <!-- Text lines inside document -->
        <line x1="20" y1="40" x2="140" y2="40" stroke="#0ea5e9" stroke-width="5" stroke-linecap="round" />
        <line x1="20" y1="65" x2="120" y2="65" stroke="#94a3b8" stroke-width="3" stroke-linecap="round" />
        <line x1="20" y1="85" x2="140" y2="85" stroke="#94a3b8" stroke-width="3" stroke-linecap="round" />
        <line x1="20" y1="105" x2="110" y2="105" stroke="#94a3b8" stroke-width="3" stroke-linecap="round" />
        <line x1="20" y1="125" x2="135" y2="125" stroke="#94a3b8" stroke-width="3" stroke-linecap="round" />
        <line x1="20" y1="145" x2="140" y2="145" stroke="#94a3b8" stroke-width="3" stroke-linecap="round" />
        <line x1="20" y1="165" x2="90" y2="165" stroke="#94a3b8" stroke-width="3" stroke-linecap="round" />
        
        <!-- Comment bubble pointing to text -->
        <g transform="translate(145, 75)">
          <path d="M10,-15 L100,-15 A8,8 0 0,1 108,-7 L108,35 A8,8 0 0,1 100,43 L35,43 L15,58 L15,43 L10,43 A8,8 0 0,1 2,35 L2,-7 A8,8 0 0,1 10,-15 Z" fill="#f97316" stroke="#ea580c" stroke-width="1" />
          <text x="55" y="12" text-anchor="middle" fill="#ffffff" font-family="'Inter', system-ui, sans-serif" font-weight="900" font-size="11">Comment</text>
          <text x="55" y="28" text-anchor="middle" fill="#ffedd5" font-family="'Inter', system-ui, sans-serif" font-weight="bold" font-size="10">để thảo luận</text>
        </g>

        <!-- Dynamic edits/pen illustration -->
        <g transform="translate(25, 175)" stroke="#fb923c" stroke-width="3" fill="none">
          <line x1="0" y1="35" x2="45" y2="0" stroke-linecap="round" />
          <polygon points="45,0 42,6 38,2" fill="#fb923c" />
        </g>
      </g>

      <!-- History check box bottom of card -->
      <g transform="translate(110, 290)">
        <rect x="0" y="0" width="200" height="30" rx="15" fill="#0f172a" stroke="#0ea5e9" stroke-width="1.5" />
        <!-- Clock icon -->
        <circle cx="20" cy="15" r="7" stroke="#0ea5e9" stroke-width="1.5" fill="none" />
        <polyline points="20,15 20,10 24,15" fill="none" stroke="#0ea5e9" stroke-width="1.5" />
        <text x="110" y="19" text-anchor="middle" fill="#38bdf8" font-family="'Inter', system-ui, sans-serif" font-weight="black" font-size="10">Version History để kiểm soát bản cập nhật</text>
      </g>

      <!-- Bottom description -->
      <line x1="15" y1="335" x2="395" y2="335" stroke="#334155" stroke-width="1" />
      <text x="20" y="360" fill="#94a3b8" font-family="'Inter', system-ui, sans-serif" font-size="13">Biên tập kịch bản đồng thời, lưu giữ lịch sử sửa đổi</text>
    </g>

    <!-- 1.4 GOOGLE MEET (Bottom Right) -->
    <g transform="translate(470, 475)">
      <rect width="410" height="380" rx="16" fill="#041522" stroke="#10b981" stroke-width="1.5" />
      <rect width="410" height="42" rx="16" fill="#064e3b" stroke="#10b981" stroke-width="1.5" opacity="0.4" />
      <text x="20" y="28" fill="#6ee7b7" font-family="'Inter', system-ui, sans-serif" font-weight="900" font-size="18">GOOGLE MEET <tspan font-weight="500" fill="#cbd5e1" font-size="15">(Họp trực tuyến)</tspan></text>
      
      <!-- Video conference layout design -->
      <g transform="translate(50, 70)">
        <!-- Screen interface -->
        <rect x="0" y="0" width="310" height="170" rx="8" fill="#020b18" stroke="#334155" stroke-width="2" />
        
        <!-- Video Grid: 4 boxes -->
        <!-- box 1 -->
        <rect x="10" y="10" width="140" height="70" rx="4" fill="#0f172a" />
        <!-- Person icon -->
        <circle cx="80" cy="38" r="12" fill="#10b981" opacity="0.7" />
        <path d="M62,60 Q80,48 98,60 Z" fill="#10b981" opacity="0.7" />
        <!-- Participant name -->
        <text x="20" y="72" fill="#64748b" font-family="'Inter', system-ui, sans-serif" font-size="8">Linh (Host)</text>

        <!-- box 2 -->
        <rect x="160" y="10" width="140" height="70" rx="4" fill="#0f172a" />
        <circle cx="230" cy="38" r="12" fill="#3b82f6" opacity="0.7" />
        <path d="M212,60 Q230,48 248,60 Z" fill="#3b82f6" opacity="0.7" />
        <text x="170" y="72" fill="#64748b" font-family="'Inter', system-ui, sans-serif" font-size="8">Thành viên 2</text>

        <!-- box 3 -->
        <rect x="10" y="90" width="140" height="70" rx="4" fill="#0f172a" />
        <circle cx="80" cy="118" r="12" fill="#eab308" opacity="0.7" />
        <path d="M62,140 Q80,128 98,140 Z" fill="#eab308" opacity="0.7" />
        <text x="20" y="152" fill="#64748b" font-family="'Inter', system-ui, sans-serif" font-size="8">Thành viên 3</text>

        <!-- box 4 (Screen sharing symbol) -->
        <rect x="160" y="90" width="140" height="70" rx="4" fill="#031622" stroke="#10b981" stroke-width="1" />
        <line x1="180" y1="125" x2="280" y2="125" stroke="#10b981" stroke-width="2" />
        <line x1="190" y1="110" x2="270" y2="110" stroke="#10b981" stroke-width="2" opacity="0.5" />
        <path d="M220,135 L230,125 L240,135 Z" fill="#10b981" />
        <text x="212" y="152" fill="#10b981" font-family="'Inter', system-ui, sans-serif" font-weight="bold" font-size="8">Trình bày màn hình</text>
      </g>

      <!-- Features overlay badges -->
      <g transform="translate(10, 255)">
        <rect x="10" y="0" width="180" height="24" rx="12" fill="#064e3b" stroke="#10b981" stroke-width="1" />
        <text x="100" y="15" text-anchor="middle" fill="#6ee7b7" font-family="'Inter', system-ui, sans-serif" font-weight="bold" font-size="9.5">Chia sẻ tài liệu qua khung chat</text>
        
        <rect x="200" y="0" width="180" height="24" rx="12" fill="#1e293b" stroke="#3b82f6" stroke-width="1" />
        <!-- tiny calendar icon -->
        <rect x="210" y="6" width="12" height="12" rx="2" stroke="#3b82f6" stroke-width="1.5" fill="none" />
        <line x1="214" y1="4" x2="214" y2="7" stroke="#3b82f6" stroke-width="1.5" />
        <line x1="218" y1="4" x2="218" y2="7" stroke="#3b82f6" stroke-width="1.5" />
        <text x="295" y="15" text-anchor="middle" fill="#93c5fd" font-family="'Inter', system-ui, sans-serif" font-weight="bold" font-size="9.5">Lên lịch qua Google Calendar</text>
      </g>

      <!-- Bottom description -->
      <line x1="15" y1="335" x2="395" y2="335" stroke="#334155" stroke-width="1" />
      <text x="20" y="360" fill="#94a3b8" font-family="'Inter', system-ui, sans-serif" font-size="13">Gặp mặt trực tuyến, thảo luận nhanh &amp; thống nhất định hướng</text>
    </g>
  </g>

  <!-- COLUMN II - 2. THÁCH THỨC & GIẢI PHÁP QUẢN LÝ -->
  <g transform="translate(975, 120)" filter="url(#shadow)">
    <!-- Main Outer Box -->
    <rect width="910" height="890" rx="20" fill="url(#card-grad)" stroke="#10b981" stroke-width="1.5" />
    <rect width="910" height="890" rx="20" fill="none" stroke="#10b981" stroke-width="2.5" opacity="0.25" filter="url(#glow-emerald)" />
    
    <!-- Title Section Header -->
    <text x="40" y="45" fill="#10b981" font-family="'Inter', system-ui, sans-serif" font-weight="900" font-size="24" letter-spacing="1">2. THÁCH THỨC &amp; GIẢI PHÁP QUẢN LÝ</text>
    <line x1="40" y1="58" x2="480" y2="58" stroke="#10b981" stroke-width="2" opacity="0.5" />

    <!-- TABLE STRUCTURE -->
    <g transform="translate(30, 85)">
      <!-- Table Header lines -->
      <rect width="850" height="42" rx="8" fill="#042017" stroke="#047857" stroke-width="1.5" />
      <text x="40" y="27" fill="#6ee7b7" font-family="'Inter', system-ui, sans-serif" font-weight="900" font-size="15">STT</text>
      <text x="180" y="27" fill="#6ee7b7" font-family="'Inter', system-ui, sans-serif" font-weight="900" font-size="15">THÁCH THỨC</text>
      <text x="560" y="27" fill="#6ee7b7" font-family="'Inter', system-ui, sans-serif" font-weight="900" font-size="15">Ý GIẢI (GIẢI PHÁP QUẢN TRỊ)</text>
      
      <!-- Table rows separator vertical lines -->
      <line x1="80" y1="0" x2="80" y2="760" stroke="#047857" stroke-width="1" opacity="0.4" />
      <line x1="400" y1="0" x2="400" y2="760" stroke="#047857" stroke-width="1" opacity="0.4" />

      <!-- ROW 1 -->
      <g transform="translate(0, 42)">
        <rect width="850" height="180" fill="none" stroke="#047857" stroke-width="1" opacity="0.4" />
        
        <!-- STT Column -->
        <circle cx="40" cy="90" r="18" fill="#10b981" />
        <text x="40" y="96" text-anchor="middle" fill="#041522" font-family="'Inter', system-ui, sans-serif" font-weight="900" font-size="18">1</text>
        
        <!-- Challenge Column -->
        <g transform="translate(100, 30)">
          <!-- Speech bubbles graphic representing noisy/lost chats -->
          <g transform="translate(20, 30)">
            <rect x="0" y="0" width="80" height="40" rx="8" fill="#ea580c" opacity="0.8" />
            <polygon points="20,40 30,50 35,40" fill="#ea580c" opacity="0.8" />
            <line x1="15" y1="15" x2="65" y2="15" stroke="#ffffff" stroke-width="2.5" stroke-linecap="round" />
            <line x1="15" y1="25" x2="50" y2="25" stroke="#ffffff" stroke-width="2.5" stroke-linecap="round" />
            
            <rect x="60" y="-15" width="80" height="40" rx="8" fill="#10b981" opacity="0.7" />
            <polygon points="120,25 125,35 135,25" fill="#10b981" opacity="0.7" />
          </g>
          <text x="140" y="115" text-anchor="middle" fill="#ff8a4c" font-family="'Inter', system-ui, sans-serif" font-weight="900" font-size="17">Trôi tin nhắn thảo luận</text>
        </g>
        
        <!-- Solution Column -->
        <g transform="translate(420, 25)">
          <!-- Document Icon representing Google Docs "Họp" -->
          <g transform="translate(30, 20)">
            <rect width="60" height="85" rx="6" fill="#0284c7" stroke="#38bdf8" stroke-width="2" />
            <line x1="15" y1="20" x2="45" y2="20" stroke="#ffffff" stroke-width="3" />
            <line x1="15" y1="35" x2="45" y2="35" stroke="#ffffff" stroke-width="3" />
            <line x1="15" y1="50" x2="35" y2="50" stroke="#ffffff" stroke-width="3" />
            <!-- small text box "Họp" -->
            <rect x="25" y="60" width="30" height="15" rx="3" fill="#ffffff" />
            <text x="40" y="71" text-anchor="middle" fill="#0284c7" font-family="'Inter', system-ui, sans-serif" font-weight="bold" font-size="9">Họp</text>
          </g>
          
          <g transform="translate(120, 40)">
            <text x="0" y="20" fill="#ffffff" font-family="'Inter', system-ui, sans-serif" font-weight="900" font-size="18">Tổng hợp ý chính vào</text>
            <text x="0" y="50" fill="#34d399" font-family="'Inter', system-ui, sans-serif" font-weight="900" font-size="18">Google Docs "Họp"</text>
            <text x="0" y="75" fill="#94a3b8" font-family="'Inter', system-ui, sans-serif" font-size="13.5">Ghi chép nhanh các ý kiến thảo luận tức thời</text>
          </g>
        </g>
      </g>

      <!-- ROW 2 -->
      <g transform="translate(0, 222)">
        <rect width="850" height="180" fill="none" stroke="#047857" stroke-width="1" opacity="0.4" />
        
        <!-- STT Column -->
        <circle cx="40" cy="90" r="18" fill="#10b981" />
        <text x="40" y="96" text-anchor="middle" fill="#041522" font-family="'Inter', system-ui, sans-serif" font-weight="900" font-size="18">1</text>
        
        <!-- Challenge Column -->
        <g transform="translate(100, 30)">
          <!-- Speech bubbles graphic representing noisy/lost chats repeat -->
          <g transform="translate(30, 25)">
            <rect x="0" y="0" width="70" height="35" rx="8" fill="#94a3b8" opacity="0.5" />
            <rect x="50" y="15" width="70" height="35" rx="8" fill="#ef4444" opacity="0.8" />
            <polygon points="100,50 110,58 112,50" fill="#ef4444" opacity="0.8" />
          </g>
          <text x="140" y="115" text-anchor="middle" fill="#ff8a4c" font-family="'Inter', system-ui, sans-serif" font-weight="900" font-size="17">Trôi tin nhắn thảo luận</text>
        </g>
        
        <!-- Solution Column -->
        <g transform="translate(420, 25)">
          <!-- Document Icon representing Google Docs "Biên bản họp" -->
          <g transform="translate(30, 20)">
            <rect width="60" height="85" rx="6" fill="#3b82f6" stroke="#93c5fd" stroke-width="2" />
            <line x1="12" y1="20" x2="48" y2="20" stroke="#ffffff" stroke-width="3" />
            <line x1="12" y1="35" x2="48" y2="35" stroke="#ffffff" stroke-width="3" />
            <line x1="12" y1="50" x2="48" y2="50" stroke="#ffffff" stroke-width="3" />
            <!-- red stamp text -->
            <rect x="15" y="62" width="40" height="15" rx="2" fill="#ef4444" />
            <text x="35" y="73" text-anchor="middle" fill="#ffffff" font-family="'Inter', system-ui, sans-serif" font-weight="black" font-size="7">BIÊN BẢN</text>
          </g>
          
          <g transform="translate(120, 35)">
            <text x="0" y="20" fill="#ffffff" font-family="'Inter', system-ui, sans-serif" font-weight="900" font-size="18">Tổng hợp ý chính vào</text>
            <text x="0" y="50" fill="#34d399" font-family="'Inter', system-ui, sans-serif" font-weight="900" font-size="18">Google Docs "Biên bản họp"</text>
            <text x="0" y="75" fill="#94a3b8" font-family="'Inter', system-ui, sans-serif" font-size="13.5">Chốt phân công &amp; đóng băng thông tin quan trọng</text>
          </g>
        </g>
      </g>

      <!-- ROW 3 -->
      <g transform="translate(0, 402)">
        <rect width="850" height="180" fill="none" stroke="#047857" stroke-width="1" opacity="0.4" />
        
        <!-- STT Column -->
        <circle cx="40" cy="90" r="18" fill="#10b981" />
        <text x="40" y="96" text-anchor="middle" fill="#041522" font-family="'Inter', system-ui, sans-serif" font-weight="900" font-size="18">2</text>
        
        <!-- Challenge Column -->
        <g transform="translate(100, 30)">
          <!-- Calendar and Clock representing forgotten deadlines -->
          <g transform="translate(50, 10)">
            <rect x="0" y="0" width="70" height="60" rx="8" fill="#1e293b" stroke="#f59e0b" stroke-width="2" />
            <rect x="0" y="0" width="70" height="15" rx="2" fill="#f59e0b" />
            <circle cx="15" cy="7.5" r="2" fill="#ffffff" />
            <circle cx="55" cy="7.5" r="2" fill="#ffffff" />
            <text x="35" y="42" text-anchor="middle" fill="#ef4444" font-family="'Inter', system-ui, sans-serif" font-weight="black" font-size="22">!</text>
            
            <!-- glowing exclamation mark -->
            <circle cx="50" cy="45" r="12" fill="#ef4444" opacity="0.3" filter="url(#glow-teal)" />
            <text x="50" y="51" text-anchor="middle" fill="#ffffff" font-family="'Inter', system-ui, sans-serif" font-weight="bold" font-size="16">?</text>
          </g>
          <text x="140" y="115" text-anchor="middle" fill="#ff8a4c" font-family="'Inter', system-ui, sans-serif" font-weight="900" font-size="17">Quên hạn chót (Deadline)</text>
        </g>
        
        <!-- Solution Column -->
        <g transform="translate(420, 25)">
          <!-- Trello & Email Graphic -->
          <g transform="translate(20, 20)">
            <rect width="80" height="50" rx="6" fill="#0ea5e9" stroke="#ffffff" stroke-width="1" />
            <rect x="10" y="10" width="25" height="30" rx="3" fill="#ffffff" />
            <rect x="45" y="10" width="25" height="20" rx="3" fill="#ffffff" />
            
            <g transform="translate(30, 30)">
              <rect x="0" y="0" width="55" height="35" rx="4" fill="#f59e0b" stroke="#ffffff" stroke-width="1.5" />
              <path d="M0,0 L27.5,18 L55,0" fill="none" stroke="#ffffff" stroke-width="1.5" />
            </g>
          </g>
          
          <g transform="translate(120, 35)">
            <text x="0" y="20" fill="#ffffff" font-family="'Inter', system-ui, sans-serif" font-weight="900" font-size="18">Trello tự động gửi email</text>
            <text x="0" y="50" fill="#34d399" font-family="'Inter', system-ui, sans-serif" font-weight="900" font-size="18">nhắc hẹn 1 ngày trước</text>
            <text x="0" y="75" fill="#94a3b8" font-family="'Inter', system-ui, sans-serif" font-size="13.5">Hạn chế trễ hạn chót bằng thông báo tự động (Automation)</text>
          </g>
        </g>
      </g>

      <!-- ROW 4 -->
      <g transform="translate(0, 582)">
        <rect width="850" height="178" fill="none" stroke="#047857" stroke-width="1" opacity="0.4" />
        
        <!-- STT Column -->
        <circle cx="40" cy="90" r="18" fill="#10b981" />
        <text x="40" y="96" text-anchor="middle" fill="#041522" font-family="'Inter', system-ui, sans-serif" font-weight="900" font-size="18">3</text>
        
        <!-- Challenge Column -->
        <g transform="translate(100, 30)">
          <!-- Clashing content representing conflicts -->
          <g transform="translate(45, 10)">
            <path d="M0,30 L30,10 L30,50 Z" fill="#ef4444" opacity="0.8" />
            <path d="M70,30 L40,10 L40,50 Z" fill="#3b82f6" opacity="0.8" />
            <circle cx="35" cy="30" r="15" fill="#f59e0b" opacity="0.9" filter="url(#glow-teal)" />
            <text x="35" y="35" text-anchor="middle" fill="#ffffff" font-family="'Inter', system-ui, sans-serif" font-weight="black" font-size="14">VS</text>
          </g>
          <text x="140" y="115" text-anchor="middle" fill="#ff8a4c" font-family="'Inter', system-ui, sans-serif" font-weight="900" font-size="17">Xung đột nội dung</text>
        </g>
        
        <!-- Solution Column -->
        <g transform="translate(420, 25)">
          <!-- Comments illustration -->
          <g transform="translate(30, 25)">
            <rect width="70" height="50" rx="8" fill="#0f172a" stroke="#10b981" stroke-width="2" />
            <circle cx="20" cy="20" r="3" fill="#10b981" />
            <circle cx="35" cy="20" r="3" fill="#10b981" />
            <circle cx="50" cy="20" r="3" fill="#10b981" />
            <line x1="15" y1="35" x2="55" y2="35" stroke="#94a3b8" stroke-width="2" />
          </g>
          
          <g transform="translate(120, 35)">
            <text x="0" y="18" fill="#ffffff" font-family="'Inter', system-ui, sans-serif" font-weight="900" font-size="17.5">Thống nhất quy trình để lại</text>
            <text x="0" y="46" fill="#34d399" font-family="'Inter', system-ui, sans-serif" font-weight="900" font-size="17.5">nhận xét (Comment) trước khi sửa</text>
            <text x="0" y="71" fill="#94a3b8" font-family="'Inter', system-ui, sans-serif" font-size="13">Bảo vệ cấu trúc văn bản gốc và tôn trọng đóng góp nhóm</text>
          </g>
        </g>
      </g>

    </g>
  </g>

  <!-- FOOTER PANEL METADATA -->
  <g transform="translate(35, 1030)">
    <rect width="1850" height="40" rx="8" fill="rgba(4, 31, 46, 0.8)" stroke="rgba(45, 212, 191, 0.2)" stroke-width="1.5" />
    <text x="20" y="24" fill="#a5f3fc" font-family="'JetBrains Mono', monospace" font-size="12" letter-spacing="0.5">Nguồn: Tóm tắt tmpgiipm6_bt3_25051227doanngoclinh.docx</text>
    <text x="1830" y="24" text-anchor="end" fill="#2dd4bf" font-family="'JetBrains Mono', monospace" font-size="12" font-weight="bold">DESIGN BY DOAN NGOC LINH • LỚP: QH 2025E KTQT 10 • MSV: 25051227</text>
  </g>
</svg>
