<svg xmlns="http://www.w3.org/2000/svg" viewBox="0 0 1920 1080" width="100%" height="100%">
  <!-- Definitions for Gradients, Shadows, and Filters -->
  <defs>
    <linearGradient id="bg-grad" x1="0%" y1="0%" x2="100%" y2="100%">
      <stop offset="0%" stop-color="#020b18" />
      <stop offset="50%" stop-color="#041824" />
      <stop offset="100%" stop-color="#010810" />
    </linearGradient>
    <linearGradient id="card-grad" x1="0%" y1="0%" x2="0%" y2="100%">
      <stop offset="0%" stop-color="#051c2c" />
      <stop offset="100%" stop-color="#020d16" />
    </linearGradient>
    <linearGradient id="step-grad" x1="0%" y1="0%" x2="100%" y2="100%">
      <stop offset="0%" stop-color="#072b40" />
      <stop offset="100%" stop-color="#031420" />
    </linearGradient>
    <linearGradient id="teal-glow" x1="0%" y1="0%" x2="100%" y2="0%">
      <stop offset="0%" stop-color="#2dd4bf" />
      <stop offset="100%" stop-color="#0d9488" />
    </linearGradient>
    <linearGradient id="glow-grad" x1="0%" y1="0%" x2="100%" y2="100%">
      <stop offset="0%" stop-color="#14b8a6" stop-opacity="0.15" />
      <stop offset="100%" stop-color="#06b6d4" stop-opacity="0" />
    </linearGradient>
    <filter id="shadow" x="-5%" y="-5%" width="110%" height="110%">
      <feDropShadow dx="0" dy="8" stdDeviation="6" flood-color="#000000" flood-opacity="0.6"/>
    </filter>
    <filter id="glow-teal" x="-20%" y="-20%" width="140%" height="140%">
      <feGaussianBlur stdDeviation="8" result="blur" />
      <feComposite in="SourceGraphic" in2="blur" operator="over" />
    </filter>
    <filter id="glow-soft" x="-10%" y="-10%" width="120%" height="120%">
      <feGaussianBlur stdDeviation="3" result="blur" />
      <feComposite in="SourceGraphic" in2="blur" operator="over" />
    </filter>
  </defs>

  <!-- Background -->
  <rect width="1920" height="1080" fill="url(#bg-grad)" />
  
  <!-- Grid Pattern for Tech Aesthetic -->
  <g opacity="0.015" stroke="#2dd4bf" stroke-width="1">
    <path d="M 0,50 L 1920,50 M 0,100 L 1920,100 M 0,150 L 1920,150 M 0,200 L 1920,200 M 0,250 L 1920,250 M 0,300 L 1920,300 M 0,350 L 1920,350 M 0,400 L 1920,400 M 0,450 L 1920,450 M 0,500 L 1920,500 M 0,550 L 1920,550 M 0,600 L 1920,600 M 0,650 L 1920,650 M 0,700 L 1920,700 M 0,750 L 1920,750 M 0,800 L 1920,800 M 0,850 L 1920,850 M 0,900 L 1920,900 M 0,950 L 1920,950 M 0,1000 L 1920,1000 M 0,1050 L 1920,1050" />
    <path d="M 50,0 L 50,1080 M 100,0 L 100,1080 M 150,0 L 150,1080 M 200,0 L 200,1080 M 250,0 L 250,1080 M 300,0 L 300,1080 M 350,0 L 350,1080 M 400,0 L 400,1080 M 450,0 L 450,1080 M 500,0 L 500,1080 M 550,0 L 550,1080 M 600,0 L 600,1080 M 650,0 L 650,1080 M 700,0 L 700,1080 M 750,0 L 750,1080 M 800,0 L 800,1080 M 850,0 L 850,1080 M 900,0 L 900,1080 M 950,0 L 950,1080 M 1000,0 L 1000,1080 M 1050,0 L 1050,1080 M 1100,0 L 1100,1080 M 1150,0 L 1150,1080 M 1200,0 L 1200,1080 M 1250,0 L 1250,1080 M 1300,0 L 1300,1080 M 1350,0 L 1350,1080 M 1400,0 L 1400,1080 M 1450,0 L 1450,1080 M 1500,0 L 1500,1080 M 1550,0 L 1550,1080 M 1600,0 L 1600,1080 M 1650,0 L 1650,1080 M 1700,0 L 1700,1080 M 1750,0 L 1750,1080 M 1800,0 L 1800,1080 M 1850,0 L 1850,1080 M 1900,0 L 1900,1080" />
  </g>

  <!-- Glowing background blobs -->
  <circle cx="250" cy="250" r="180" fill="url(#glow-grad)" filter="url(#glow-teal)" opacity="0.12" />
  <circle cx="1650" cy="850" r="220" fill="url(#glow-grad)" filter="url(#glow-teal)" opacity="0.1" />

  <!-- MAIN TITLE HEADER -->
  <g filter="url(#shadow)" transform="translate(0, 0)">
    <rect x="0" y="0" width="1920" height="110" fill="#020b18" fill-opacity="0.85" />
    <line x1="0" y1="110" x2="1920" y2="110" stroke="#14b8a6" stroke-width="2" opacity="0.7" filter="url(#glow-soft)" />
    
    <text x="960" y="60" text-anchor="middle" fill="#ffffff" font-family="'Inter', system-ui, sans-serif" font-weight="900" font-size="34" letter-spacing="1">BÁO CÁO DỰ ÁN: AI &amp; BƯỚC NGOẶT GIÁO DỤC NGOẠI NGỮ</text>
    <text x="960" y="94" text-anchor="middle" fill="#2dd4bf" font-family="'Inter', system-ui, sans-serif" font-weight="700" font-size="16" letter-spacing="4">DỰ ÁN SÁNG TẠO NỘI DUNG EDUTECH VISIONARIES</text>
  </g>

  <!-- COLUMN I (LEFT) - SECTION I & III -->
  <!-- SECTION I: GIỚI THIỆU DỰ ÁN -->
  <g transform="translate(40, 150)" filter="url(#shadow)">
    <!-- Main Outer Box -->
    <rect width="720" height="340" rx="16" fill="url(#card-grad)" stroke="#14b8a6" stroke-width="1.5" />
    <rect width="720" height="340" rx="16" fill="none" stroke="#14b8a6" stroke-width="2.5" opacity="0.25" filter="url(#glow-soft)" />
    
    <!-- Tab Header Banner -->
    <path d="M 0,16 A 16,16 0 0 1 16,0 L 320,0 A 10,10 0 0 1 330,10 L 340,40 A 16,16 0 0 1 324,56 L 0,56 Z" fill="#072b40" />
    <text x="30" y="36" fill="#2dd4bf" font-family="'Inter', system-ui, sans-serif" font-weight="900" font-size="18" letter-spacing="1">I. GIỚI THIỆU DỰ ÁN</text>
    
    <!-- Content inside Box I -->
    <g transform="translate(30, 80)">
      <!-- Item 1: Tên dự án -->
      <g transform="translate(0, 20)">
        <circle cx="20" cy="15" r="5" fill="#2dd4bf" />
        <text x="40" y="21" fill="#e2e8f0" font-family="'Inter', system-ui, sans-serif" font-weight="500" font-size="16" xml:space="preserve"><tspan font-weight="800" fill="#2dd4bf">Tên dự án:</tspan> Bản tin EduTech Vision - Kịch bản thời sự.</text>
      </g>
      
      <!-- Item 2: Sản phẩm -->
      <g transform="translate(0, 85)">
        <circle cx="20" cy="15" r="5" fill="#2dd4bf" />
        <text x="40" y="21" fill="#e2e8f0" font-family="'Inter', system-ui, sans-serif" font-weight="500" font-size="16" xml:space="preserve"><tspan font-weight="800" fill="#2dd4bf">Sản phẩm:</tspan> Kịch bản đa điểm cầu &amp; Hình ảnh số.</text>
      </g>
      
      <!-- Item 3: Mục tiêu -->
      <g transform="translate(0, 150)">
        <circle cx="20" cy="15" r="5" fill="#2dd4bf" />
        <text x="40" y="21" fill="#e2e8f0" font-family="'Inter', system-ui, sans-serif" font-weight="500" font-size="16" xml:space="preserve"><tspan font-weight="800" fill="#2dd4bf">Mục tiêu:</tspan> Phân tích ứng dụng AI học tiếng Anh tại Việt Nam.</text>
      </g>
    </g>

    <!-- Visual Icons on Right of Box I -->
    <g transform="translate(560, 110)" opacity="0.85">
      <!-- Microphone Icon -->
      <g transform="translate(0, 0)">
        <rect x="25" y="10" width="14" height="24" rx="7" fill="none" stroke="#2dd4bf" stroke-width="2.5" />
        <path d="M 20,22 A 12,12 0 0 0 44,22" fill="none" stroke="#2dd4bf" stroke-width="2.5" />
        <line x1="32" y1="34" x2="32" y2="44" stroke="#2dd4bf" stroke-width="2.5" />
        <line x1="22" y1="44" x2="42" y2="44" stroke="#2dd4bf" stroke-width="2.5" />
      </g>
      
      <!-- Globe Network Icon -->
      <g transform="translate(55, 30)">
        <circle cx="25" cy="25" r="22" fill="none" stroke="#2dd4bf" stroke-width="2.5" />
        <ellipse cx="25" cy="25" rx="22" ry="7" fill="none" stroke="#2dd4bf" stroke-width="1.5" />
        <ellipse cx="25" cy="25" rx="7" ry="22" fill="none" stroke="#2dd4bf" stroke-width="1.5" />
        <line x1="3" y1="25" x2="47" y2="25" stroke="#2dd4bf" stroke-width="1.5" />
        <line x1="25" y1="3" x2="25" y2="47" stroke="#2dd4bf" stroke-width="1.5" />
      </g>

      <!-- Team Icon -->
      <g transform="translate(10, 85)">
        <circle cx="20" cy="20" r="6" fill="none" stroke="#2dd4bf" stroke-width="2" />
        <path d="M 10,34 A 10,10 0 0 1 30,34" fill="none" stroke="#2dd4bf" stroke-width="2" />
        <circle cx="36" cy="25" r="5" fill="none" stroke="#2dd4bf" stroke-width="1.5" />
        <path d="M 28,36 A 8,8 0 0 1 44,36" fill="none" stroke="#2dd4bf" stroke-width="1.5" />
      </g>
    </g>
  </g>

  <!-- COLUMN II (RIGHT) - SECTION II -->
  <!-- SECTION II: QUÁ TRÌNH SỬ DỤNG AI & TÍCH HỢP SÁNG TẠO -->
  <g transform="translate(800, 150)" filter="url(#shadow)">
    <!-- Main Outer Box -->
    <rect width="1080" height="510" rx="16" fill="url(#card-grad)" stroke="#14b8a6" stroke-width="1.5" />
    <rect width="1080" height="510" rx="16" fill="none" stroke="#14b8a6" stroke-width="2.5" opacity="0.25" filter="url(#glow-soft)" />
    
    <!-- Tab Header Banner -->
    <path d="M 0,16 A 16,16 0 0 1 16,0 L 520,0 A 10,10 0 0 1 530,10 L 540,40 A 16,16 0 0 1 524,56 L 0,56 Z" fill="#072b40" />
    <text x="30" y="36" fill="#2dd4bf" font-family="'Inter', system-ui, sans-serif" font-weight="900" font-size="18" letter-spacing="1">II. QUÁ TRÌNH SỬ DỤNG AI &amp; TÍCH HỢP SÁNG TẠO</text>

    <!-- Glowing Connected Curves behind steps -->
    <g stroke="#14b8a6" stroke-width="2" fill="none" opacity="0.3" filter="url(#glow-soft)">
      <path d="M 310,280 Q 360,340 500,280" />
      <path d="M 670,280 Q 720,340 860,280" />
    </g>

    <!-- Step 1 Card -->
    <g transform="translate(30, 90)">
      <rect width="320" height="380" rx="12" fill="url(#step-grad)" stroke="#1e293b" stroke-width="1.5" />
      
      <!-- Top Badge Step Number -->
      <rect x="15" y="-15" width="30" height="30" rx="6" fill="#06b6d4" />
      <text x="30" y="5" text-anchor="middle" fill="#020b18" font-family="'Inter', system-ui, sans-serif" font-weight="900" font-size="16">1</text>
      
      <!-- Icon (Speech bubbles + Pencil) -->
      <g transform="translate(130, 30)">
        <rect x="0" y="10" width="40" height="26" rx="6" fill="none" stroke="#2dd4bf" stroke-width="2" />
        <path d="M 8,36 L 4,42 L 14,36 Z" fill="#2dd4bf" />
        <circle cx="14" cy="23" r="2" fill="#2dd4bf" />
        <circle cx="20" cy="23" r="2" fill="#2dd4bf" />
        <circle cx="26" cy="23" r="2" fill="#2dd4bf" />
        
        <path d="M 32,5 L 45,18" stroke="#38bdf8" stroke-width="2" />
        <polygon points="45,18 42,23 39,20" fill="#38bdf8" />
      </g>

      <!-- Step Content -->
      <g transform="translate(20, 110)">
        <text x="140" y="20" text-anchor="middle" fill="#38bdf8" font-family="'Inter', system-ui, sans-serif" font-weight="800" font-size="15" letter-spacing="0.5">*AI tạo văn bản</text>
        <text x="140" y="42" text-anchor="middle" fill="#38bdf8" font-family="'Inter', system-ui, sans-serif" font-weight="800" font-size="15" letter-spacing="0.5">(Gemini/ChatGPT):</text>
        
        <text x="140" y="85" text-anchor="middle" fill="#e2e8f0" font-family="'Inter', system-ui, sans-serif" font-weight="600" font-size="14.5">Lên khung kịch bản,</text>
        <text x="140" y="110" text-anchor="middle" fill="#e2e8f0" font-family="'Inter', system-ui, sans-serif" font-weight="600" font-size="14.5">biên tập nội dung.</text>
        
        <line x1="30" y1="145" x2="250" y2="145" stroke="#1e293b" stroke-width="1" />
        
        <text x="140" y="180" text-anchor="middle" fill="#a7f3d0" font-family="'Inter', system-ui, sans-serif" font-weight="700" font-size="13.5">Tinh chỉnh:</text>
        <text x="140" y="210" text-anchor="middle" fill="#94a3b8" font-family="'Inter', system-ui, sans-serif" font-size="13" font-style="italic">Tư duy kinh tế,</text>
        <text x="140" y="235" text-anchor="middle" fill="#94a3b8" font-family="'Inter', system-ui, sans-serif" font-size="13" font-style="italic">ngôn ngữ báo chí, UEB.</text>
      </g>
    </g>

    <!-- Step 2 Card -->
    <g transform="translate(380, 90)">
      <rect width="320" height="380" rx="12" fill="url(#step-grad)" stroke="#1e293b" stroke-width="1.5" />
      
      <!-- Top Badge Step Number -->
      <rect x="15" y="-15" width="30" height="30" rx="6" fill="#10b981" />
      <text x="30" y="5" text-anchor="middle" fill="#020b18" font-family="'Inter', system-ui, sans-serif" font-weight="900" font-size="16">2</text>
      
      <!-- Icon (Paintbrush + canvas) -->
      <g transform="translate(130, 30)">
        <rect x="10" y="5" width="40" height="30" rx="4" fill="none" stroke="#2dd4bf" stroke-width="2" />
        <line x1="25" y1="35" x2="20" y2="45" stroke="#2dd4bf" stroke-width="2" />
        <line x1="35" y1="35" x2="40" y2="45" stroke="#2dd4bf" stroke-width="2" />
        <path d="M 5,20 L 22,5" stroke="#eab308" stroke-width="2.5" stroke-linecap="round" />
        <circle cx="22" cy="5" r="3" fill="#eab308" />
        <circle cx="25" cy="15" r="2" fill="#2dd4bf" />
        <circle cx="35" cy="23" r="3" fill="#2dd4bf" />
      </g>

      <!-- Step Content -->
      <g transform="translate(20, 110)">
        <text x="140" y="20" text-anchor="middle" fill="#eab308" font-family="'Inter', system-ui, sans-serif" font-weight="800" font-size="15" letter-spacing="0.5">*AI tạo hình ảnh</text>
        <text x="140" y="42" text-anchor="middle" fill="#eab308" font-family="'Inter', system-ui, sans-serif" font-weight="800" font-size="15" letter-spacing="0.5">(Nano Banana 2/DALL-E 3):</text>
        
        <text x="140" y="85" text-anchor="middle" fill="#e2e8f0" font-family="'Inter', system-ui, sans-serif" font-weight="600" font-size="14.5">Trực quan ý tưởng</text>
        <text x="140" y="110" text-anchor="middle" fill="#e2e8f0" font-family="'Inter', system-ui, sans-serif" font-weight="600" font-size="14.5">trừu tượng.</text>
        
        <line x1="30" y1="145" x2="250" y2="145" stroke="#1e293b" stroke-width="1" />
        
        <text x="140" y="180" text-anchor="middle" fill="#a7f3d0" font-family="'Inter', system-ui, sans-serif" font-weight="700" font-size="13.5">Tinh chỉnh:</text>
        <text x="140" y="210" text-anchor="middle" fill="#94a3b8" font-family="'Inter', system-ui, sans-serif" font-size="13" font-style="italic">Thêm chữ Việt, nét</text>
        <text x="140" y="235" text-anchor="middle" fill="#94a3b8" font-family="'Inter', system-ui, sans-serif" font-size="13" font-style="italic">nhận diện sinh viên VN.</text>
      </g>
    </g>

    <!-- Step 3 Card -->
    <g transform="translate(730, 90)">
      <rect width="320" height="380" rx="12" fill="url(#step-grad)" stroke="#1e293b" stroke-width="1.5" />
      
      <!-- Top Badge Step Number -->
      <rect x="15" y="-15" width="30" height="30" rx="6" fill="#a855f7" />
      <text x="30" y="5" text-anchor="middle" fill="#020b18" font-family="'Inter', system-ui, sans-serif" font-weight="900" font-size="16">3</text>
      
      <!-- Icon (Palette + document check) -->
      <g transform="translate(130, 30)">
        <path d="M 12,20 C 12,12 28,12 28,20 C 28,28 12,28 12,20 Z" fill="none" stroke="#2dd4bf" stroke-width="2" />
        <circle cx="17" cy="18" r="1.5" fill="#2dd4bf" />
        <circle cx="23" cy="17" r="1.5" fill="#2dd4bf" />
        <circle cx="23" cy="23" r="1.5" fill="#2dd4bf" />
        
        <rect x="30" y="12" width="22" height="28" rx="3" fill="none" stroke="#a855f7" stroke-width="2" />
        <polyline points="35,26 39,30 46,20" fill="none" stroke="#a855f7" stroke-width="2" />
      </g>

      <!-- Step Content -->
      <g transform="translate(20, 110)">
        <text x="140" y="20" text-anchor="middle" fill="#c084fc" font-family="'Inter', system-ui, sans-serif" font-weight="800" font-size="15" letter-spacing="0.5">*AI thiết kế/phân tích</text>
        <text x="140" y="42" text-anchor="middle" fill="#c084fc" font-family="'Inter', system-ui, sans-serif" font-weight="800" font-size="15" letter-spacing="0.5">(Canva AI/Grammarly):</text>
        
        <text x="140" y="85" text-anchor="middle" fill="#e2e8f0" font-family="'Inter', system-ui, sans-serif" font-weight="600" font-size="14.5">Thiết kế đồng bộ</text>
        <text x="140" y="110" text-anchor="middle" fill="#e2e8f0" font-family="'Inter', system-ui, sans-serif" font-weight="600" font-size="14.5">(watercolor pastel),</text>
        <text x="140" y="135" text-anchor="middle" fill="#e2e8f0" font-family="'Inter', system-ui, sans-serif" font-weight="600" font-size="14.5">kiểm tra tiếng Anh.</text>
        
        <line x1="30" y1="165" x2="250" y2="165" stroke="#1e293b" stroke-width="1" />
        
        <text x="140" y="200" text-anchor="middle" fill="#cbd5e1" font-family="'Inter', system-ui, sans-serif" font-size="13" font-style="italic">Bản báo cáo hoàn chỉnh</text>
        <text x="140" y="225" text-anchor="middle" fill="#cbd5e1" font-family="'Inter', system-ui, sans-serif" font-size="13" font-style="italic">chuyên nghiệp đồng bộ.</text>
      </g>
    </g>
  </g>

  <!-- COLUMN I (LEFT - LOWER) - SECTION III -->
  <!-- SECTION III: SO SÁNH & PHÂN TÍCH HIỆU QUẢ -->
  <g transform="translate(40, 520)" filter="url(#shadow)">
    <!-- Main Outer Box -->
    <rect width="720" height="500" rx="16" fill="url(#card-grad)" stroke="#14b8a6" stroke-width="1.5" />
    <rect width="720" height="500" rx="16" fill="none" stroke="#14b8a6" stroke-width="2.5" opacity="0.25" filter="url(#glow-soft)" />
    
    <!-- Tab Header Banner -->
    <path d="M 0,16 A 16,16 0 0 1 16,0 L 370,0 A 10,10 0 0 1 380,10 L 390,40 A 16,16 0 0 1 374,56 L 0,56 Z" fill="#072b40" />
    <text x="30" y="36" fill="#2dd4bf" font-family="'Inter', system-ui, sans-serif" font-weight="900" font-size="18" letter-spacing="1">III. SO SÁNH &amp; PHÂN TÍCH HIỆU QUẢ</text>

    <!-- Column A: Ưu điểm -->
    <g transform="translate(25, 80)">
      <rect width="210" height="390" rx="10" fill="#031a26" stroke="#10b981" stroke-width="1" stroke-opacity="0.6" />
      
      <!-- Circle Badge A -->
      <circle cx="35" cy="35" r="16" fill="#10b981" />
      <text x="35" y="41" text-anchor="middle" fill="#020b18" font-family="'Inter', system-ui, sans-serif" font-weight="900" font-size="16">A</text>
      
      <!-- Green Check Icon -->
      <g transform="translate(85, 80)">
        <circle cx="20" cy="20" r="18" fill="none" stroke="#10b981" stroke-width="2.5" />
        <polyline points="12,20 18,26 28,14" fill="none" stroke="#10b981" stroke-width="3" stroke-linecap="round" stroke-linejoin="round" />
      </g>
      
      <!-- Content A -->
      <g transform="translate(15, 150)">
        <text x="90" y="20" text-anchor="middle" fill="#10b981" font-family="'Inter', system-ui, sans-serif" font-weight="800" font-size="15" letter-spacing="0.5">A. Ưu điểm:</text>
        <text x="90" y="60" text-anchor="middle" fill="#e2e8f0" font-family="'Inter', system-ui, sans-serif" font-weight="600" font-size="14">Cấu trúc nhanh,</text>
        <text x="90" y="90" text-anchor="middle" fill="#e2e8f0" font-family="'Inter', system-ui, sans-serif" font-weight="600" font-size="14">đa chiều, trực</text>
        <text x="90" y="120" text-anchor="middle" fill="#e2e8f0" font-family="'Inter', system-ui, sans-serif" font-weight="600" font-size="14">quan ý tưởng</text>
        <text x="90" y="150" text-anchor="middle" fill="#e2e8f0" font-family="'Inter', system-ui, sans-serif" font-weight="600" font-size="14">trừu tượng.</text>
      </g>
    </g>

    <!-- Column B: Hạn chế -->
    <g transform="translate(255, 80)">
      <rect width="210" height="390" rx="10" fill="#031a26" stroke="#ef4444" stroke-width="1" stroke-opacity="0.6" />
      
      <!-- Circle Badge B -->
      <circle cx="35" cy="35" r="16" fill="#ef4444" />
      <text x="35" y="41" text-anchor="middle" fill="#020b18" font-family="'Inter', system-ui, sans-serif" font-weight="900" font-size="16">B</text>
      
      <!-- Red X Icon -->
      <g transform="translate(85, 80)">
        <circle cx="20" cy="20" r="18" fill="none" stroke="#ef4444" stroke-width="2.5" />
        <line x1="13" y1="13" x2="27" y2="27" stroke="#ef4444" stroke-width="3" stroke-linecap="round" />
        <line x1="27" y1="13" x2="13" y2="27" stroke="#ef4444" stroke-width="3" stroke-linecap="round" />
      </g>
      
      <!-- Content B -->
      <g transform="translate(15, 150)">
        <text x="90" y="20" text-anchor="middle" fill="#ef4444" font-family="'Inter', system-ui, sans-serif" font-weight="800" font-size="15" letter-spacing="0.5">B. Hạn chế:</text>
        <text x="90" y="60" text-anchor="middle" fill="#e2e8f0" font-family="'Inter', system-ui, sans-serif" font-weight="600" font-size="14">AI văn bản "ảo</text>
        <text x="90" y="85" text-anchor="middle" fill="#e2e8f0" font-family="'Inter', system-ui, sans-serif" font-weight="600" font-size="14">tưởng", AI hình</text>
        <text x="90" y="110" text-anchor="middle" fill="#e2e8f0" font-family="'Inter', system-ui, sans-serif" font-weight="600" font-size="14">ảnh lỗi chi tiết</text>
        <text x="90" y="135" text-anchor="middle" fill="#e2e8f0" font-family="'Inter', system-ui, sans-serif" font-weight="600" font-size="14">nhỏ/chữ. Thiếu</text>
        <text x="90" y="160" text-anchor="middle" fill="#e2e8f0" font-family="'Inter', system-ui, sans-serif" font-weight="600" font-size="14">thấu cảm văn</text>
        <text x="90" y="185" text-anchor="middle" fill="#e2e8f0" font-family="'Inter', system-ui, sans-serif" font-weight="600" font-size="14">hóa địa phương.</text>
      </g>
    </g>

    <!-- Column C: Quy trình -->
    <g transform="translate(485, 80)">
      <rect width="210" height="390" rx="10" fill="#031a26" stroke="#38bdf8" stroke-width="1" stroke-opacity="0.6" />
      
      <!-- Circle Badge C -->
      <circle cx="35" cy="35" r="16" fill="#38bdf8" />
      <text x="35" y="41" text-anchor="middle" fill="#020b18" font-family="'Inter', system-ui, sans-serif" font-weight="900" font-size="16">C</text>
      
      <!-- Movie/Director Reel Icon -->
      <g transform="translate(85, 80)">
        <circle cx="20" cy="20" r="16" fill="none" stroke="#38bdf8" stroke-width="2.5" />
        <rect x="14" y="14" width="12" height="12" fill="none" stroke="#38bdf8" stroke-width="2" />
        <line x1="14" y1="20" x2="26" y2="20" stroke="#38bdf8" stroke-width="1.5" />
        <line x1="20" y1="14" x2="20" y2="26" stroke="#38bdf8" stroke-width="1.5" />
        
        <!-- Director chair accent -->
        <line x1="10" y1="32" x2="30" y2="32" stroke="#38bdf8" stroke-width="2.5" />
        <line x1="14" y1="32" x2="8" y2="38" stroke="#38bdf8" stroke-width="2" />
        <line x1="26" y1="32" x2="32" y2="38" stroke="#38bdf8" stroke-width="2" />
      </g>
      
      <!-- Content C -->
      <g transform="translate(15, 150)">
        <text x="90" y="20" text-anchor="middle" fill="#38bdf8" font-family="'Inter', system-ui, sans-serif" font-weight="800" font-size="15" letter-spacing="0.3">C. Thay đổi:</text>
        <text x="90" y="60" text-anchor="middle" fill="#e2e8f0" font-family="'Inter', system-ui, sans-serif" font-weight="600" font-size="14">Sự thay đổi quy</text>
        <text x="90" y="85" text-anchor="middle" fill="#e2e8f0" font-family="'Inter', system-ui, sans-serif" font-weight="600" font-size="14">trình: Từ tìm kiếm</text>
        <text x="90" y="110" text-anchor="middle" fill="#e2e8f0" font-family="'Inter', system-ui, sans-serif" font-weight="600" font-size="14">thủ công sang</text>
        <text x="90" y="135" text-anchor="middle" fill="#2dd4bf" font-weight="800" font-family="'Inter', system-ui, sans-serif" font-size="14">"Tổng đạo diễn"</text>
        <text x="90" y="165" text-anchor="middle" fill="#94a3b8" font-family="'Inter', system-ui, sans-serif" font-size="13" font-style="italic">(Prompting &amp;</text>
        <text x="90" y="188" text-anchor="middle" fill="#94a3b8" font-family="'Inter', system-ui, sans-serif" font-size="13" font-style="italic">Kiểm chứng).</text>
      </g>
    </g>
  </g>

  <!-- COLUMN II (RIGHT - LOWER) - SECTION IV -->
  <!-- SECTION IV: ĐẠO ĐỨC & VAI TRÒ CON NGƯỜI -->
  <g transform="translate(800, 680)" filter="url(#shadow)">
    <!-- Main Outer Box -->
    <rect width="1080" height="340" rx="16" fill="url(#card-grad)" stroke="#14b8a6" stroke-width="1.5" />
    <rect width="1080" height="340" rx="16" fill="none" stroke="#14b8a6" stroke-width="2.5" opacity="0.25" filter="url(#glow-soft)" />
    
    <!-- Tab Header Banner -->
    <path d="M 0,16 A 16,16 0 0 1 16,0 L 450,0 A 10,10 0 0 1 460,10 L 470,40 A 16,16 0 0 1 454,56 L 0,56 Z" fill="#072b40" />
    <text x="30" y="36" fill="#2dd4bf" font-family="'Inter', system-ui, sans-serif" font-weight="900" font-size="18" letter-spacing="1">IV. ĐẠO ĐỨC &amp; VAI TRÒ CON NGƯỜI</text>

    <!-- Column Left: Đạo đức -->
    <g transform="translate(30, 80)">
      <rect width="500" height="230" rx="12" fill="#031b28" stroke="#1e293b" stroke-width="1" />
      
      <!-- Balance Scale Icon -->
      <g transform="translate(30, 40)">
        <line x1="10" y1="70" x2="70" y2="70" stroke="#2dd4bf" stroke-width="4" stroke-linecap="round" />
        <line x1="40" y1="20" x2="40" y2="70" stroke="#2dd4bf" stroke-width="4" stroke-linecap="round" />
        <line x1="20" y1="20" x2="60" y2="20" stroke="#2dd4bf" stroke-width="4" stroke-linecap="round" />
        
        <!-- Left Scale Bowl -->
        <line x1="20" y1="20" x2="10" y2="45" stroke="#2dd4bf" stroke-width="2" />
        <line x1="20" y1="20" x2="30" y2="45" stroke="#2dd4bf" stroke-width="2" />
        <path d="M 5,45 Q 20,55 35,45 Z" fill="none" stroke="#2dd4bf" stroke-width="2.5" />

        <!-- Right Scale Bowl -->
        <line x1="60" y1="20" x2="50" y2="45" stroke="#2dd4bf" stroke-width="2" />
        <line x1="60" y1="20" x2="70" y2="45" stroke="#2dd4bf" stroke-width="2" />
        <path d="M 45,45 Q 60,55 75,45 Z" fill="none" stroke="#2dd4bf" stroke-width="2.5" />
      </g>

      <!-- Content Ethics -->
      <g transform="translate(130, 30)">
        <text x="0" y="20" fill="#2dd4bf" font-family="'Inter', system-ui, sans-serif" font-weight="800" font-size="17">Đạo đức:</text>
        <text x="0" y="60" fill="#e2e8f0" font-family="'Inter', system-ui, sans-serif" font-weight="600" font-size="15" xml:space="preserve">Trích nguồn ảnh AI, tránh lạm dụng,</text>
        <text x="0" y="95" fill="#e2e8f0" font-family="'Inter', system-ui, sans-serif" font-weight="600" font-size="15" xml:space="preserve">người học không thụ động.</text>
        
        <text x="0" y="145" fill="#94a3b8" font-family="'Inter', system-ui, sans-serif" font-size="13" font-style="italic">Tôn trọng liêm chính học thuật và bản quyền số.</text>
      </g>
    </g>

    <!-- Column Right: Vai trò con người -->
    <g transform="translate(550, 80)">
      <rect width="500" height="230" rx="12" fill="#031b28" stroke="#1e293b" stroke-width="1" />
      
      <!-- Brain/Heart Integration Icon -->
      <g transform="translate(30, 30)">
        <!-- Brain (Left Side of Icon) -->
        <path d="M 35,35 Q 25,10 15,20 Q 5,22 8,32 Q 3,36 10,44 Q 5,52 14,54 Q 25,58 35,52" fill="none" stroke="#ff79c6" stroke-width="2" />
        <path d="M 15,30 Q 25,32 35,32" stroke="#ff79c6" stroke-width="1.5" fill="none" />
        <path d="M 18,44 Q 25,44 32,44" stroke="#ff79c6" stroke-width="1.5" fill="none" />
        
        <!-- Heart (Right Side of Icon) -->
        <path d="M 35,52 C 35,52 65,34 65,22 C 65,14 55,8 48,16 C 44,11 35,14 35,14" fill="none" stroke="#ff5555" stroke-width="2" />
        
        <!-- Glow Core -->
        <circle cx="35" cy="30" r="4" fill="#2dd4bf" filter="url(#glow-soft)" />
      </g>

      <!-- Content Human Role -->
      <g transform="translate(130, 30)">
        <text x="0" y="20" fill="#ff5555" font-family="'Inter', system-ui, sans-serif" font-weight="800" font-size="17">Vai trò con người:</text>
        <text x="0" y="60" fill="#e2e8f0" font-family="'Inter', system-ui, sans-serif" font-weight="600" font-size="15" xml:space="preserve">AI là "cộng sự" đắc lực.</text>
        <text x="0" y="90" fill="#2dd4bf" font-family="'Inter', system-ui, sans-serif" font-weight="800" font-size="15" xml:space="preserve">Tư duy phản biện &amp; Thấu cảm</text>
        <text x="0" y="120" fill="#2dd4bf" font-family="'Inter', system-ui, sans-serif" font-weight="800" font-size="15" xml:space="preserve">con người quyết định giá trị cuối cùng.</text>
      </g>
    </g>
  </g>

  <!-- FOOTER PANEL -->
  <g transform="translate(40, 1030)">
    <rect width="1840" height="35" rx="6" fill="#020b18" fill-opacity="0.8" stroke="#1e293b" stroke-width="1" />
    <text x="15" y="21" fill="#94a3b8" font-family="'JetBrains Mono', monospace" font-size="11">Nguồn: Báo cáo kịch bản tmp0amg2e_bt2_doanngoclinh25051227.docx</text>
    <text x="1825" y="21" text-anchor="end" fill="#2dd4bf" font-family="'Inter', system-ui, sans-serif" font-weight="700" font-size="11">SINH VIÊN THỰC HIỆN: ĐOÀN NGỌC LINH • MSV: 25051227 • LỚP: QH 2025E KTQT 10</text>
  </g>
</svg>
